<svg width="1860" height="153" viewBox="0 0 1860 153" fill="none" xmlns="http://www.w3.org/2000/svg">
<rect width="1860" height="153" rx="10" fill="#FFC736" fill-opacity="0.8"/>
<path d="M817.26 91.422C817.26 91.422 817.178 91.7773 817.014 92.488C816.85 93.1987 816.495 94.0733 815.948 95.112C815.401 96.1507 814.554 97.2167 813.406 98.31C812.313 99.3487 810.809 100.223 808.896 100.934C806.983 101.645 804.577 102 801.68 102C798.181 102 795.311 101.453 793.07 100.36C790.883 99.2667 789.161 97.7907 787.904 95.932C786.647 94.0187 785.745 91.914 785.198 89.618C784.651 87.2673 784.323 84.8347 784.214 82.32C784.159 79.8053 784.187 77.3727 784.296 75.022C784.405 72.6167 784.487 70.4573 784.542 68.544C784.597 65.6467 785.116 63.3233 786.1 61.574C787.139 59.77 788.396 58.4033 789.872 57.474C791.403 56.49 792.988 55.8067 794.628 55.424C796.268 55.0413 797.744 54.8227 799.056 54.768C801.735 54.604 804.441 55.0687 807.174 56.162C809.907 57.2553 812.121 59.278 813.816 62.23C814.691 63.706 814.937 64.8813 814.554 65.756C814.226 66.576 813.597 67.1773 812.668 67.56C811.793 67.9427 810.891 68.1887 809.962 68.298C809.033 68.4073 808.431 68.462 808.158 68.462C806.409 68.462 805.069 68.216 804.14 67.724C803.265 67.232 802.637 66.658 802.254 66.002C801.926 65.2913 801.762 64.6627 801.762 64.116C801.762 63.6787 801.625 63.2413 801.352 62.804C801.133 62.312 800.833 61.984 800.45 61.82C800.122 61.656 799.767 61.8473 799.384 62.394C799.056 62.9407 798.783 64.0067 798.564 65.592C798.4 66.8493 798.291 68.5167 798.236 70.594C798.236 72.6167 798.263 74.776 798.318 77.072C798.373 79.3133 798.427 81.4453 798.482 83.468C798.591 85.4907 798.673 87.158 798.728 88.47C798.837 89.7273 798.892 90.356 798.892 90.356C798.892 90.356 798.947 90.766 799.056 91.586C799.22 92.406 799.521 93.226 799.958 94.046C800.45 94.866 801.161 95.3033 802.09 95.358C802.801 95.4127 803.347 95.194 803.73 94.702C804.167 94.1553 804.468 93.554 804.632 92.898C804.851 92.1873 804.987 91.586 805.042 91.094C805.097 90.5473 805.124 90.274 805.124 90.274C805.124 90.274 805.097 90.0553 805.042 89.618C805.042 89.1807 805.179 88.6887 805.452 88.142C805.725 87.5407 806.299 87.0487 807.174 86.666C808.049 86.2287 809.388 86.0373 811.192 86.092C812.996 86.1467 814.335 86.4473 815.21 86.994C816.085 87.486 816.659 88.0873 816.932 88.798C817.205 89.454 817.315 90.0553 817.26 90.602C817.26 91.1487 817.26 91.422 817.26 91.422ZM837.704 68.708C839.726 68.544 841.284 68.7627 842.378 69.364C843.471 69.9653 844.127 70.3207 844.346 70.43C844.892 70.7033 845.384 71.004 845.822 71.332C846.314 71.66 846.56 71.824 846.56 71.824C846.56 71.824 846.97 71.9607 847.79 72.234C848.61 72.5073 849.566 73.1633 850.66 74.202C851.753 75.186 852.764 76.744 853.694 78.876C854.623 81.008 855.17 83.9053 855.334 87.568C855.443 90.028 855.06 92.1053 854.186 93.8C853.311 95.44 852.136 96.8067 850.66 97.9C849.238 98.9387 847.68 99.7587 845.986 100.36C844.346 100.907 842.76 101.289 841.23 101.508C839.754 101.727 838.524 101.863 837.54 101.918C836.61 101.973 836.146 102 836.146 102C836.146 102 835.599 102 834.506 102C833.467 102 832.155 101.836 830.57 101.508C828.984 101.125 827.399 100.415 825.814 99.376C824.283 98.2827 822.998 96.6973 821.96 94.62C820.976 92.5427 820.538 89.782 820.648 86.338C820.757 82.894 821.386 80.0787 822.534 77.892C823.736 75.6507 825.158 73.9013 826.798 72.644C828.492 71.3867 830.16 70.4847 831.8 69.938C833.494 69.3913 834.888 69.0633 835.982 68.954C837.13 68.79 837.704 68.708 837.704 68.708ZM838.032 76.744C838.032 76.744 837.676 77.1813 836.966 78.056C836.31 78.9307 835.626 80.1607 834.916 81.746C834.26 83.3313 833.932 85.19 833.932 87.322C833.932 89.3993 834.178 91.0393 834.67 92.242C835.162 93.4447 835.681 94.3193 836.228 94.866C836.829 95.358 837.294 95.604 837.622 95.604C837.95 95.604 838.469 95.4673 839.18 95.194C839.945 94.866 840.628 94.1553 841.23 93.062C841.831 91.9687 842.104 90.2467 842.05 87.896C841.995 85.928 841.776 84.3427 841.394 83.14C841.066 81.9373 840.601 80.8713 840 79.942C839.453 78.958 838.797 77.892 838.032 76.744ZM867.705 102C867.705 102 867.349 102 866.639 102C865.928 102 865.108 101.891 864.179 101.672C863.304 101.453 862.511 101.016 861.801 100.36C861.09 99.704 860.68 98.7473 860.571 97.49C860.516 96.4513 860.407 94.9753 860.243 93.062C860.079 91.1487 859.887 89.0713 859.669 86.83C859.505 84.534 859.341 82.3747 859.177 80.352C859.013 78.2747 858.876 76.58 858.767 75.268C858.657 73.956 858.603 73.3 858.603 73.3C858.603 73.3 858.63 73.0813 858.685 72.644C858.739 72.152 858.931 71.6053 859.259 71.004C859.641 70.4027 860.27 69.856 861.145 69.364C862.074 68.872 863.359 68.5987 864.999 68.544C866.639 68.4893 867.923 68.6533 868.853 69.036C869.782 69.4187 870.438 69.8833 870.821 70.43C871.258 70.922 871.504 71.3867 871.559 71.824C871.668 72.2067 871.723 72.398 871.723 72.398C871.723 72.398 872.215 72.152 873.199 71.66C874.237 71.1133 875.549 70.5667 877.135 70.02C878.775 69.4733 880.497 69.1453 882.301 69.036C882.574 69.036 883.093 69.036 883.859 69.036C884.679 69.036 885.553 69.2273 886.483 69.61C887.467 69.938 888.423 70.594 889.353 71.578C890.337 72.562 891.157 74.0107 891.813 75.924C892.469 77.7827 892.851 80.2427 892.961 83.304C893.125 87.1307 893.234 90.274 893.289 92.734C893.398 95.194 893.316 97.1073 893.043 98.474C892.824 99.786 892.277 100.715 891.403 101.262C890.583 101.754 889.271 102 887.467 102C885.717 102 884.433 101.754 883.613 101.262C882.793 100.77 882.273 100.196 882.055 99.54C881.836 98.8293 881.727 98.2007 881.727 97.654C881.727 97.326 881.781 96.4513 881.891 95.03C882 93.554 882.082 91.8867 882.137 90.028C882.191 88.1147 882.164 86.256 882.055 84.452C882 82.5933 881.781 81.09 881.399 79.942C881.071 78.7393 880.524 78.1653 879.759 78.22C878.829 78.2747 877.955 78.63 877.135 79.286C876.369 79.8873 875.686 80.598 875.085 81.418C874.483 82.1833 874.019 82.8667 873.691 83.468C873.363 84.0147 873.199 84.288 873.199 84.288L874.019 96.67C874.019 96.67 874.019 96.9433 874.019 97.49C874.019 98.0367 873.855 98.6653 873.527 99.376C873.199 100.032 872.57 100.633 871.641 101.18C870.766 101.727 869.454 102 867.705 102ZM897.198 57.228C897.144 55.8613 897.554 54.768 898.428 53.948C899.303 53.0733 901.244 52.554 904.25 52.39C906.273 52.2807 907.749 52.5267 908.678 53.128C909.608 53.7293 910.182 54.358 910.4 55.014C910.674 55.6153 910.81 55.916 910.81 55.916L911.302 63.214C911.302 63.214 911.74 63.214 912.614 63.214C913.544 63.214 914.582 63.3233 915.73 63.542C916.933 63.706 917.972 64.0613 918.846 64.608C919.776 65.1547 920.24 66.002 920.24 67.15C920.24 68.298 919.803 69.1453 918.928 69.692C918.054 70.2387 917.042 70.6213 915.894 70.84C914.746 71.004 913.708 71.086 912.778 71.086C911.904 71.086 911.466 71.086 911.466 71.086C911.466 71.086 911.466 71.7147 911.466 72.972C911.521 74.1747 911.548 75.76 911.548 77.728C911.548 79.6413 911.576 81.6913 911.63 83.878C911.685 86.0647 911.712 88.1693 911.712 90.192C911.712 92.16 911.712 93.8273 911.712 95.194C911.767 96.506 911.794 97.2713 911.794 97.49C911.794 97.8727 911.658 98.4193 911.384 99.13C911.166 99.8407 910.537 100.497 909.498 101.098C908.514 101.699 906.874 102 904.578 102C902.884 102 901.572 101.809 900.642 101.426C899.713 100.989 899.03 100.524 898.592 100.032C898.21 99.4853 897.991 99.0207 897.936 98.638C897.882 98.2007 897.854 97.982 897.854 97.982L897.198 57.228ZM940.427 68.134C943.16 68.0793 945.483 68.3253 947.397 68.872C949.31 69.364 950.895 69.9653 952.153 70.676C953.41 71.3867 954.394 72.0153 955.105 72.562C955.815 73.1087 956.335 73.382 956.663 73.382C957.264 73.4367 957.701 73.7373 957.975 74.284C958.248 74.776 958.385 75.022 958.385 75.022C958.385 75.022 958.467 75.5687 958.631 76.662C958.795 77.7553 958.986 79.1493 959.205 80.844C959.478 82.5387 959.724 84.3153 959.943 86.174C960.161 88.0327 960.353 89.782 960.517 91.422C960.681 93.062 960.763 94.3467 960.763 95.276C960.763 96.8067 960.653 98.0367 960.435 98.966C960.271 99.8953 959.724 100.606 958.795 101.098C957.865 101.535 956.335 101.836 954.203 102C952.617 102.109 951.469 102.082 950.759 101.918C950.048 101.754 949.611 101.563 949.447 101.344C949.283 101.125 949.201 101.016 949.201 101.016C948.709 101.399 947.889 101.672 946.741 101.836C945.647 101.945 944.609 102 943.625 102C942.641 102 942.149 102 942.149 102C942.149 102 941.52 101.918 940.263 101.754C939.005 101.535 937.447 101.125 935.589 100.524C933.785 99.868 931.953 98.9113 930.095 97.654C928.291 96.342 926.787 94.62 925.585 92.488C924.382 90.3013 923.808 87.5953 923.863 84.37C923.917 81.1447 924.519 78.5207 925.667 76.498C926.815 74.4207 928.209 72.808 929.849 71.66C931.489 70.512 933.101 69.692 934.687 69.2C936.327 68.708 937.693 68.4073 938.787 68.298C939.88 68.1887 940.427 68.134 940.427 68.134ZM946.577 76.58C946.303 76.1973 945.702 75.7873 944.773 75.35C943.898 74.858 943.051 74.448 942.231 74.12C941.465 73.792 941.083 73.6827 941.083 73.792C941.083 73.8467 940.782 74.3113 940.181 75.186C939.634 76.006 939.06 77.236 938.459 78.876C937.912 80.4613 937.611 82.3747 937.557 84.616C937.502 86.8573 937.803 88.798 938.459 90.438C939.115 92.078 939.907 93.3353 940.837 94.21C941.821 95.0847 942.723 95.522 943.543 95.522C944.144 95.522 944.718 95.2487 945.265 94.702C945.811 94.1007 946.276 93.4447 946.659 92.734C947.041 91.9687 947.342 91.3127 947.561 90.766C947.779 90.2193 947.889 89.946 947.889 89.946L946.577 76.58ZM992.014 83.304C989.882 83.304 988.324 83.058 987.34 82.566C986.411 82.0193 985.81 81.4727 985.536 80.926C985.318 80.3793 985.208 80.024 985.208 79.86C985.208 79.696 985.099 79.368 984.88 78.876C984.716 78.384 984.416 77.9193 983.978 77.482C983.541 76.99 982.967 76.744 982.256 76.744C981.546 76.6893 980.862 77.1813 980.206 78.22C979.55 79.2587 979.004 80.516 978.566 81.992C978.129 83.4133 977.856 84.78 977.746 86.092C977.692 87.404 977.828 88.7433 978.156 90.11C978.539 91.4767 979.086 92.6247 979.796 93.554C980.507 94.4287 981.354 94.8933 982.338 94.948C983.814 95.0027 984.716 94.784 985.044 94.292C985.372 93.7453 985.536 93.472 985.536 93.472C985.536 93.472 985.591 93.308 985.7 92.98C985.81 92.5973 986.11 92.1873 986.602 91.75C987.149 91.3127 987.996 90.9573 989.144 90.684C990.292 90.356 991.932 90.2193 994.064 90.274C996.196 90.3287 997.645 90.602 998.41 91.094C999.176 91.586 999.558 92.1327 999.558 92.734C999.613 93.3353 999.504 93.8547 999.23 94.292C998.957 94.7293 998.82 94.948 998.82 94.948C998.82 94.948 998.438 95.3033 997.672 96.014C996.907 96.7247 995.786 97.5447 994.31 98.474C992.889 99.4033 991.14 100.223 989.062 100.934C986.985 101.645 984.607 102 981.928 102C976.626 102 972.416 100.551 969.3 97.654C966.239 94.7567 964.599 90.6567 964.38 85.354C964.271 82.73 964.736 80.3793 965.774 78.302C966.813 76.2247 968.207 74.4753 969.956 73.054C971.706 71.578 973.646 70.4573 975.778 69.692C977.91 68.872 979.988 68.4073 982.01 68.298C984.088 68.1887 986.056 68.4893 987.914 69.2C989.773 69.856 991.44 70.758 992.916 71.906C994.447 73.054 995.677 74.2567 996.606 75.514C997.536 76.7713 998.055 77.9467 998.164 79.04C998.274 80.0787 998.028 80.8987 997.426 81.5C996.88 82.1013 996.169 82.5387 995.294 82.812C994.474 83.0307 993.736 83.1673 993.08 83.222C992.424 83.2767 992.069 83.304 992.014 83.304ZM1003.3 57.228C1003.25 55.8613 1003.66 54.768 1004.53 53.948C1005.41 53.0733 1007.35 52.554 1010.35 52.39C1012.38 52.2807 1013.85 52.5267 1014.78 53.128C1015.71 53.7293 1016.29 54.358 1016.5 55.014C1016.78 55.6153 1016.91 55.916 1016.91 55.916L1017.41 63.214C1017.41 63.214 1017.84 63.214 1018.72 63.214C1019.65 63.214 1020.69 63.3233 1021.83 63.542C1023.04 63.706 1024.08 64.0613 1024.95 64.608C1025.88 65.1547 1026.34 66.002 1026.34 67.15C1026.34 68.298 1025.91 69.1453 1025.03 69.692C1024.16 70.2387 1023.15 70.6213 1022 70.84C1020.85 71.004 1019.81 71.086 1018.88 71.086C1018.01 71.086 1017.57 71.086 1017.57 71.086C1017.57 71.086 1017.57 71.7147 1017.57 72.972C1017.62 74.1747 1017.65 75.76 1017.65 77.728C1017.65 79.6413 1017.68 81.6913 1017.73 83.878C1017.79 86.0647 1017.82 88.1693 1017.82 90.192C1017.82 92.16 1017.82 93.8273 1017.82 95.194C1017.87 96.506 1017.9 97.2713 1017.9 97.49C1017.9 97.8727 1017.76 98.4193 1017.49 99.13C1017.27 99.8407 1016.64 100.497 1015.6 101.098C1014.62 101.699 1012.98 102 1010.68 102C1008.99 102 1007.68 101.809 1006.75 101.426C1005.82 100.989 1005.13 100.524 1004.7 100.032C1004.31 99.4853 1004.09 99.0207 1004.04 98.638C1003.99 98.2007 1003.96 97.982 1003.96 97.982L1003.3 57.228Z" fill="black"/>
</svg>
