<svg width="460" height="51" viewBox="0 0 460 51" fill="none" xmlns="http://www.w3.org/2000/svg">
<path d="M0.804 8.426C0.804 8.426 0.749333 8.20733 0.64 7.77C0.530667 7.278 0.558 6.704 0.722 6.048C0.940667 5.392 1.43267 4.79066 2.198 4.244C3.018 3.69733 4.30267 3.342 6.052 3.178C7.80133 3.014 9.76933 2.87733 11.956 2.768C14.1973 2.65867 16.3293 2.54933 18.352 2.44C20.4293 2.33066 22.124 2.24867 23.436 2.194C24.748 2.13933 25.404 2.112 25.404 2.112C25.404 2.112 25.7593 2.13933 26.47 2.194C27.2353 2.194 28.11 2.30333 29.094 2.522C30.1327 2.686 31.062 3.04133 31.882 3.588C32.702 4.08 33.194 4.818 33.358 5.802C33.522 6.786 33.3307 7.55133 32.784 8.098C32.2373 8.64466 31.5813 9.05466 30.816 9.328C30.0507 9.54667 29.3673 9.68333 28.766 9.738C28.1647 9.79267 27.864 9.82 27.864 9.82L14.744 10.558C14.744 10.558 14.826 10.9133 14.99 11.624C15.154 12.3347 15.318 13.1547 15.482 14.084C15.7007 14.9587 15.8373 15.724 15.892 16.38C15.9467 16.9813 16.0013 17.774 16.056 18.758C16.1107 19.6873 16.1653 20.5347 16.22 21.3C16.2747 22.0107 16.302 22.366 16.302 22.366H22.37C22.37 22.366 22.6707 22.3933 23.272 22.448C23.8733 22.448 24.5567 22.5573 25.322 22.776C26.142 22.94 26.8527 23.2133 27.454 23.596C28.0553 23.9787 28.3833 24.5527 28.438 25.318C28.4927 26.302 28.11 27.04 27.29 27.532C26.5247 28.024 25.7047 28.352 24.83 28.516C24.01 28.6253 23.4907 28.7073 23.272 28.762C23.108 28.762 22.6707 28.7893 21.96 28.844C21.2493 28.844 20.4567 28.844 19.582 28.844C18.762 28.844 18.024 28.844 17.368 28.844C16.712 28.844 16.384 28.844 16.384 28.844C16.384 28.844 16.384 29.254 16.384 30.074C16.4387 30.8393 16.4933 31.7413 16.548 32.78C16.6027 33.8187 16.6027 34.7207 16.548 35.486C16.548 36.1967 16.5207 37.0713 16.466 38.11C16.4113 39.094 16.3567 39.9687 16.302 40.734C16.2473 41.4447 16.22 41.8 16.22 41.8L27.29 41.39C27.29 41.39 27.6453 41.39 28.356 41.39C29.0667 41.3353 29.914 41.39 30.898 41.554C31.882 41.718 32.7567 42.046 33.522 42.538C34.2873 43.03 34.6973 43.768 34.752 44.752C34.8613 45.736 34.588 46.5287 33.932 47.13C33.276 47.7313 32.5107 48.1687 31.636 48.442C30.7613 48.7153 29.9687 48.9067 29.258 49.016C28.602 49.0707 28.274 49.098 28.274 49.098L10.562 50C10.562 50 10.1247 50 9.25 50C8.43 50.0547 7.47333 50 6.38 49.836C5.28667 49.6173 4.33 49.2073 3.51 48.606C2.69 47.95 2.30733 46.966 2.362 45.654C2.47133 43.9047 2.58067 41.1713 2.69 37.454C2.79933 33.682 2.74467 29.2813 2.526 24.252C2.30733 19.2227 1.73333 13.9473 0.804 8.426ZM56.8126 25.81L61.3226 19.578C61.3226 19.578 61.5139 19.3593 61.8966 18.922C62.3339 18.4847 63.0719 18.0473 64.1106 17.61C65.2039 17.1727 66.6799 16.9813 68.5386 17.036C70.4519 17.036 71.9006 17.4187 72.8846 18.184C73.9232 18.8947 74.5246 19.7147 74.6886 20.644C74.8526 21.5733 74.5246 22.4207 73.7046 23.186C73.1032 23.7327 72.2832 24.5527 71.2446 25.646C70.2606 26.7393 69.2219 27.8873 68.1286 29.09C67.0899 30.238 66.1879 31.222 65.4226 32.042C64.7119 32.862 64.3566 33.272 64.3566 33.272L72.3926 43.932C72.3926 43.932 72.5292 44.1233 72.8026 44.506C73.0759 44.8887 73.2946 45.3807 73.4586 45.982C73.6226 46.5833 73.5952 47.1847 73.3766 47.786C73.2126 48.3327 72.6659 48.8247 71.7366 49.262C70.8619 49.6993 69.4679 49.9453 67.5546 50C65.6412 50.0547 64.1652 49.7813 63.1266 49.18C62.1426 48.5787 61.4592 47.9773 61.0766 47.376C60.6939 46.7747 60.5026 46.474 60.5026 46.474L57.0586 40.488L52.5486 47.704C52.5486 47.704 52.4119 47.8953 52.1386 48.278C51.8652 48.6607 51.2639 49.0433 50.3346 49.426C49.4599 49.8087 48.0112 50 45.9886 50C42.9819 50 41.1779 49.3713 40.5766 48.114C39.9752 46.802 40.4126 45.2167 41.8886 43.358C42.8726 42.1007 43.9112 40.7067 45.0046 39.176C46.1526 37.6453 47.1092 36.3333 47.8746 35.24C48.6946 34.092 49.1046 33.518 49.1046 33.518L39.2646 22.94C39.2646 22.94 39.1279 22.7487 38.8546 22.366C38.6359 21.9833 38.4719 21.4913 38.3626 20.89C38.3079 20.2887 38.5539 19.6873 39.1006 19.086C39.7019 18.43 40.8226 17.8833 42.4626 17.446C44.6492 16.8447 46.3712 16.7353 47.6286 17.118C48.9406 17.5007 49.8699 17.9927 50.4166 18.594C50.9632 19.1407 51.2366 19.414 51.2366 19.414L56.8126 25.81ZM105.793 31.304C103.661 31.304 102.103 31.058 101.119 30.566C100.19 30.0193 99.5888 29.4727 99.3155 28.926C99.0968 28.3793 98.9875 28.024 98.9875 27.86C98.9875 27.696 98.8781 27.368 98.6595 26.876C98.4955 26.384 98.1948 25.9193 97.7575 25.482C97.3201 24.99 96.7461 24.744 96.0355 24.744C95.3248 24.6893 94.6415 25.1813 93.9855 26.22C93.3295 27.2587 92.7828 28.516 92.3455 29.992C91.9081 31.4133 91.6348 32.78 91.5255 34.092C91.4708 35.404 91.6075 36.7433 91.9355 38.11C92.3181 39.4767 92.8648 40.6247 93.5755 41.554C94.2861 42.4287 95.1335 42.8933 96.1175 42.948C97.5935 43.0027 98.4955 42.784 98.8235 42.292C99.1515 41.7453 99.3155 41.472 99.3155 41.472C99.3155 41.472 99.3701 41.308 99.4795 40.98C99.5888 40.5973 99.8895 40.1873 100.381 39.75C100.928 39.3127 101.775 38.9573 102.923 38.684C104.071 38.356 105.711 38.2193 107.843 38.274C109.975 38.3287 111.424 38.602 112.189 39.094C112.955 39.586 113.337 40.1327 113.337 40.734C113.392 41.3353 113.283 41.8547 113.009 42.292C112.736 42.7293 112.599 42.948 112.599 42.948C112.599 42.948 112.217 43.3033 111.451 44.014C110.686 44.7247 109.565 45.5447 108.089 46.474C106.668 47.4033 104.919 48.2233 102.841 48.934C100.764 49.6447 98.3861 50 95.7075 50C90.4048 50 86.1955 48.5513 83.0795 45.654C80.0181 42.7567 78.3781 38.6567 78.1595 33.354C78.0501 30.73 78.5148 28.3793 79.5535 26.302C80.5921 24.2247 81.9861 22.4753 83.7355 21.054C85.4848 19.578 87.4255 18.4573 89.5575 17.692C91.6895 16.872 93.7668 16.4073 95.7895 16.298C97.8668 16.1887 99.8348 16.4893 101.693 17.2C103.552 17.856 105.219 18.758 106.695 19.906C108.226 21.054 109.456 22.2567 110.385 23.514C111.315 24.7713 111.834 25.9467 111.943 27.04C112.053 28.0787 111.807 28.8987 111.205 29.5C110.659 30.1013 109.948 30.5387 109.073 30.812C108.253 31.0307 107.515 31.1673 106.859 31.222C106.203 31.2767 105.848 31.304 105.793 31.304ZM149.963 25.236C149.799 27.9693 149.034 30.1833 147.667 31.878C146.301 33.518 144.633 34.7753 142.665 35.65C140.752 36.47 138.839 37.044 136.925 37.372C135.012 37.6453 133.399 37.782 132.087 37.782C130.83 37.782 130.201 37.782 130.201 37.782C130.529 39.6953 130.994 41.062 131.595 41.882C132.197 42.702 132.853 43.1667 133.563 43.276C134.329 43.3853 135.039 43.3307 135.695 43.112C136.351 42.8387 136.871 42.538 137.253 42.21C137.691 41.882 137.909 41.718 137.909 41.718C137.909 41.718 138.21 41.472 138.811 40.98C139.413 40.488 140.342 40.0233 141.599 39.586C142.911 39.094 144.551 38.848 146.519 38.848C148.761 38.848 150.264 39.1487 151.029 39.75C151.849 40.2967 152.232 40.9527 152.177 41.718C152.177 42.4287 152.013 43.0847 151.685 43.686C151.412 44.2327 151.275 44.506 151.275 44.506C151.275 44.506 151.029 44.7793 150.537 45.326C150.1 45.818 149.28 46.4193 148.077 47.13C146.875 47.8407 145.207 48.4967 143.075 49.098C140.943 49.6447 138.21 49.9453 134.875 50C131.65 50.0547 128.944 49.6173 126.757 48.688C124.571 47.7587 122.767 46.556 121.345 45.08C119.924 43.5493 118.831 41.964 118.065 40.324C117.355 38.6293 116.835 37.0713 116.507 35.65C116.234 34.174 116.097 33.026 116.097 32.206C116.097 31.386 116.152 30.32 116.261 29.008C116.425 27.696 116.781 26.3293 117.327 24.908C117.929 23.432 118.831 22.038 120.033 20.726C121.236 19.414 122.876 18.348 124.953 17.528C127.085 16.708 129.791 16.2707 133.071 16.216C137.171 16.1613 140.369 16.5167 142.665 17.282C144.961 18.0473 146.629 18.9767 147.667 20.07C148.706 21.1633 149.335 22.202 149.553 23.186C149.827 24.17 149.963 24.8533 149.963 25.236ZM129.053 32.124C132.388 31.8507 134.875 31.14 136.515 29.992C138.155 28.844 139.112 27.5593 139.385 26.138C139.659 24.7167 139.385 23.514 138.565 22.53C137.8 21.4913 136.625 21.0267 135.039 21.136C133.454 21.1907 132.251 21.792 131.431 22.94C130.611 24.0333 130.037 25.318 129.709 26.794C129.381 28.2153 129.19 29.4727 129.135 30.566C129.081 31.6047 129.053 32.124 129.053 32.124ZM163.612 0.635995C163.612 0.635995 163.967 0.66333 164.678 0.717999C165.388 0.717999 166.208 0.854666 167.138 1.128C168.067 1.34667 168.887 1.75667 169.598 2.358C170.308 2.95933 170.664 3.80666 170.664 4.9C170.664 5.61067 170.691 7.05933 170.746 9.246C170.8 11.4327 170.855 14.0293 170.91 17.036C170.964 19.988 171.019 23.0493 171.074 26.22C171.183 29.336 171.265 32.2607 171.32 34.994C171.374 37.7273 171.402 39.9413 171.402 41.636C171.456 43.3307 171.484 44.178 171.484 44.178C171.484 44.178 171.484 44.4787 171.484 45.08C171.484 45.6267 171.32 46.31 170.992 47.13C170.664 47.8953 170.035 48.5787 169.106 49.18C168.176 49.7267 166.81 50 165.006 50C162.6 50 160.851 49.6993 159.758 49.098C158.664 48.442 157.981 47.7313 157.708 46.966C157.489 46.146 157.407 45.5173 157.462 45.08C157.516 44.8613 157.544 43.9047 157.544 42.21C157.544 40.5153 157.516 38.3833 157.462 35.814C157.462 33.2447 157.434 30.484 157.38 27.532C157.325 24.58 157.27 21.6827 157.216 18.84C157.161 15.9427 157.079 13.3733 156.97 11.132C156.915 8.836 156.86 7.14133 156.806 6.048C156.696 4.51733 157.052 3.36933 157.872 2.604C158.746 1.83867 159.73 1.34667 160.824 1.128C161.972 0.854666 162.901 0.690664 163.612 0.635995ZM182.75 0.635995C182.75 0.635995 183.106 0.66333 183.816 0.717999C184.527 0.717999 185.347 0.854666 186.276 1.128C187.206 1.34667 188.026 1.75667 188.736 2.358C189.447 2.95933 189.802 3.80666 189.802 4.9C189.802 5.61067 189.83 7.05933 189.884 9.246C189.939 11.4327 189.994 14.0293 190.048 17.036C190.103 19.988 190.158 23.0493 190.212 26.22C190.322 29.336 190.404 32.2607 190.458 34.994C190.513 37.7273 190.54 39.9413 190.54 41.636C190.595 43.3307 190.622 44.178 190.622 44.178C190.622 44.178 190.622 44.4787 190.622 45.08C190.622 45.6267 190.458 46.31 190.13 47.13C189.802 47.8953 189.174 48.5787 188.244 49.18C187.315 49.7267 185.948 50 184.144 50C181.739 50 179.99 49.6993 178.896 49.098C177.803 48.442 177.12 47.7313 176.846 46.966C176.628 46.146 176.546 45.5173 176.6 45.08C176.655 44.8613 176.682 43.9047 176.682 42.21C176.682 40.5153 176.655 38.3833 176.6 35.814C176.6 33.2447 176.573 30.484 176.518 27.532C176.464 24.58 176.409 21.6827 176.354 18.84C176.3 15.9427 176.218 13.3733 176.108 11.132C176.054 8.836 175.999 7.14133 175.944 6.048C175.835 4.51733 176.19 3.36933 177.01 2.604C177.885 1.83867 178.869 1.34667 179.962 1.128C181.11 0.854666 182.04 0.690664 182.75 0.635995ZM227.719 25.236C227.555 27.9693 226.79 30.1833 225.423 31.878C224.056 33.518 222.389 34.7753 220.421 35.65C218.508 36.47 216.594 37.044 214.681 37.372C212.768 37.6453 211.155 37.782 209.843 37.782C208.586 37.782 207.957 37.782 207.957 37.782C208.285 39.6953 208.75 41.062 209.351 41.882C209.952 42.702 210.608 43.1667 211.319 43.276C212.084 43.3853 212.795 43.3307 213.451 43.112C214.107 42.8387 214.626 42.538 215.009 42.21C215.446 41.882 215.665 41.718 215.665 41.718C215.665 41.718 215.966 41.472 216.567 40.98C217.168 40.488 218.098 40.0233 219.355 39.586C220.667 39.094 222.307 38.848 224.275 38.848C226.516 38.848 228.02 39.1487 228.785 39.75C229.605 40.2967 229.988 40.9527 229.933 41.718C229.933 42.4287 229.769 43.0847 229.441 43.686C229.168 44.2327 229.031 44.506 229.031 44.506C229.031 44.506 228.785 44.7793 228.293 45.326C227.856 45.818 227.036 46.4193 225.833 47.13C224.63 47.8407 222.963 48.4967 220.831 49.098C218.699 49.6447 215.966 49.9453 212.631 50C209.406 50.0547 206.7 49.6173 204.513 48.688C202.326 47.7587 200.522 46.556 199.101 45.08C197.68 43.5493 196.586 41.964 195.821 40.324C195.11 38.6293 194.591 37.0713 194.263 35.65C193.99 34.174 193.853 33.026 193.853 32.206C193.853 31.386 193.908 30.32 194.017 29.008C194.181 27.696 194.536 26.3293 195.083 24.908C195.684 23.432 196.586 22.038 197.789 20.726C198.992 19.414 200.632 18.348 202.709 17.528C204.841 16.708 207.547 16.2707 210.827 16.216C214.927 16.1613 218.125 16.5167 220.421 17.282C222.717 18.0473 224.384 18.9767 225.423 20.07C226.462 21.1633 227.09 22.202 227.309 23.186C227.582 24.17 227.719 24.8533 227.719 25.236ZM206.809 32.124C210.144 31.8507 212.631 31.14 214.271 29.992C215.911 28.844 216.868 27.5593 217.141 26.138C217.414 24.7167 217.141 23.514 216.321 22.53C215.556 21.4913 214.38 21.0267 212.795 21.136C211.21 21.1907 210.007 21.792 209.187 22.94C208.367 24.0333 207.793 25.318 207.465 26.794C207.137 28.2153 206.946 29.4727 206.891 30.566C206.836 31.6047 206.809 32.124 206.809 32.124ZM243.5 50C243.5 50 243.144 50 242.434 50C241.723 50 240.903 49.8907 239.974 49.672C239.099 49.4533 238.306 49.016 237.596 48.36C236.885 47.704 236.475 46.7473 236.366 45.49C236.311 44.4513 236.202 42.9753 236.038 41.062C235.874 39.1487 235.682 37.0713 235.464 34.83C235.3 32.534 235.136 30.3747 234.972 28.352C234.808 26.2747 234.671 24.58 234.562 23.268C234.452 21.956 234.398 21.3 234.398 21.3C234.398 21.3 234.425 21.0813 234.48 20.644C234.534 20.152 234.726 19.6053 235.054 19.004C235.436 18.4027 236.065 17.856 236.94 17.364C237.869 16.872 239.154 16.5987 240.794 16.544C242.434 16.4893 243.718 16.6533 244.648 17.036C245.577 17.4187 246.233 17.8833 246.616 18.43C247.053 18.922 247.299 19.3867 247.354 19.824C247.463 20.2067 247.518 20.398 247.518 20.398C247.518 20.398 248.01 20.152 248.994 19.66C250.032 19.1133 251.344 18.5667 252.93 18.02C254.57 17.4733 256.292 17.1453 258.096 17.036C258.369 17.036 258.888 17.036 259.654 17.036C260.474 17.036 261.348 17.2273 262.278 17.61C263.262 17.938 264.218 18.594 265.148 19.578C266.132 20.562 266.952 22.0107 267.608 23.924C268.264 25.7827 268.646 28.2427 268.756 31.304C268.92 35.1307 269.029 38.274 269.084 40.734C269.193 43.194 269.111 45.1073 268.838 46.474C268.619 47.786 268.072 48.7153 267.198 49.262C266.378 49.754 265.066 50 263.262 50C261.512 50 260.228 49.754 259.408 49.262C258.588 48.77 258.068 48.196 257.85 47.54C257.631 46.8293 257.522 46.2007 257.522 45.654C257.522 45.326 257.576 44.4513 257.686 43.03C257.795 41.554 257.877 39.8867 257.932 38.028C257.986 36.1147 257.959 34.256 257.85 32.452C257.795 30.5933 257.576 29.09 257.194 27.942C256.866 26.7393 256.319 26.1653 255.554 26.22C254.624 26.2747 253.75 26.63 252.93 27.286C252.164 27.8873 251.481 28.598 250.88 29.418C250.278 30.1833 249.814 30.8667 249.486 31.468C249.158 32.0147 248.994 32.288 248.994 32.288L249.814 44.67C249.814 44.67 249.814 44.9433 249.814 45.49C249.814 46.0367 249.65 46.6653 249.322 47.376C248.994 48.032 248.365 48.6333 247.436 49.18C246.561 49.7267 245.249 50 243.5 50ZM272.993 5.228C272.939 3.86133 273.349 2.768 274.223 1.948C275.098 1.07333 277.039 0.553996 280.045 0.389998C282.068 0.280663 283.544 0.526663 284.473 1.128C285.403 1.72933 285.977 2.358 286.195 3.014C286.469 3.61533 286.605 3.916 286.605 3.916L287.097 11.214C287.097 11.214 287.535 11.214 288.409 11.214C289.339 11.214 290.377 11.3233 291.525 11.542C292.728 11.706 293.767 12.0613 294.641 12.608C295.571 13.1547 296.035 14.002 296.035 15.15C296.035 16.298 295.598 17.1453 294.723 17.692C293.849 18.2387 292.837 18.6213 291.689 18.84C290.541 19.004 289.503 19.086 288.573 19.086C287.699 19.086 287.261 19.086 287.261 19.086C287.261 19.086 287.261 19.7147 287.261 20.972C287.316 22.1747 287.343 23.76 287.343 25.728C287.343 27.6413 287.371 29.6913 287.425 31.878C287.48 34.0647 287.507 36.1693 287.507 38.192C287.507 40.16 287.507 41.8273 287.507 43.194C287.562 44.506 287.589 45.2713 287.589 45.49C287.589 45.8727 287.453 46.4193 287.179 47.13C286.961 47.8407 286.332 48.4967 285.293 49.098C284.309 49.6993 282.669 50 280.373 50C278.679 50 277.367 49.8087 276.437 49.426C275.508 48.9887 274.825 48.524 274.387 48.032C274.005 47.4853 273.786 47.0207 273.731 46.638C273.677 46.2007 273.649 45.982 273.649 45.982L272.993 5.228ZM332.356 11.05C331.646 11.1593 330.634 11.2413 329.322 11.296C328.01 11.296 326.671 11.214 325.304 11.05C323.938 10.886 322.762 10.5853 321.778 10.148C320.794 9.656 320.248 8.94533 320.138 8.016C320.084 7.08666 320.357 6.34866 320.958 5.802C321.614 5.25533 322.38 4.84533 323.254 4.572C324.129 4.244 324.894 4.05267 325.55 3.998C326.261 3.88866 326.616 3.834 326.616 3.834L349.576 1.702C349.576 1.702 349.959 1.702 350.724 1.702C351.49 1.64733 352.364 1.67466 353.348 1.784C354.387 1.89333 355.316 2.16667 356.136 2.604C356.956 2.98666 357.394 3.61533 357.448 4.49C357.558 5.36466 357.284 6.10266 356.628 6.704C356.027 7.25067 355.289 7.71533 354.414 8.098C353.54 8.426 352.774 8.672 352.118 8.836C351.462 8.94533 351.134 9 351.134 9L345.886 9.82C346.105 11.1867 346.351 13.1273 346.624 15.642C346.898 18.102 347.171 20.8353 347.444 23.842C347.718 26.8487 347.964 29.8007 348.182 32.698C348.401 35.5953 348.565 38.192 348.674 40.488C348.838 42.784 348.92 44.424 348.92 45.408C348.92 46.6653 348.565 47.622 347.854 48.278C347.198 48.8793 346.406 49.3167 345.476 49.59C344.602 49.8087 343.809 49.9453 343.098 50C342.442 50 342.114 50 342.114 50C342.114 50 341.759 50 341.048 50C340.338 49.9453 339.518 49.7267 338.588 49.344C337.714 48.9613 336.921 48.2507 336.21 47.212C335.554 46.1733 335.226 44.6153 335.226 42.538C335.226 40.6793 335.117 38.4107 334.898 35.732C334.734 33.0533 334.516 30.2927 334.242 27.45C333.969 24.5527 333.668 21.874 333.34 19.414C333.067 16.954 332.821 14.9587 332.602 13.428C332.438 11.8427 332.356 11.05 332.356 11.05ZM377.962 16.134C380.695 16.0793 383.018 16.3253 384.932 16.872C386.845 17.364 388.43 17.9653 389.688 18.676C390.945 19.3867 391.929 20.0153 392.64 20.562C393.35 21.1087 393.87 21.382 394.198 21.382C394.799 21.4367 395.236 21.7373 395.51 22.284C395.783 22.776 395.92 23.022 395.92 23.022C395.92 23.022 396.002 23.5687 396.166 24.662C396.33 25.7553 396.521 27.1493 396.74 28.844C397.013 30.5387 397.259 32.3153 397.478 34.174C397.696 36.0327 397.888 37.782 398.052 39.422C398.216 41.062 398.298 42.3467 398.298 43.276C398.298 44.8067 398.188 46.0367 397.97 46.966C397.806 47.8953 397.259 48.606 396.33 49.098C395.4 49.5353 393.87 49.836 391.738 50C390.152 50.1093 389.004 50.082 388.294 49.918C387.583 49.754 387.146 49.5627 386.982 49.344C386.818 49.1253 386.736 49.016 386.736 49.016C386.244 49.3987 385.424 49.672 384.276 49.836C383.182 49.9453 382.144 50 381.16 50C380.176 50 379.684 50 379.684 50C379.684 50 379.055 49.918 377.798 49.754C376.54 49.5353 374.982 49.1253 373.124 48.524C371.32 47.868 369.488 46.9113 367.63 45.654C365.826 44.342 364.322 42.62 363.12 40.488C361.917 38.3013 361.343 35.5953 361.398 32.37C361.452 29.1447 362.054 26.5207 363.202 24.498C364.35 22.4207 365.744 20.808 367.384 19.66C369.024 18.512 370.636 17.692 372.222 17.2C373.862 16.708 375.228 16.4073 376.322 16.298C377.415 16.1887 377.962 16.134 377.962 16.134ZM384.112 24.58C383.838 24.1973 383.237 23.7873 382.308 23.35C381.433 22.858 380.586 22.448 379.766 22.12C379 21.792 378.618 21.6827 378.618 21.792C378.618 21.8467 378.317 22.3113 377.716 23.186C377.169 24.006 376.595 25.236 375.994 26.876C375.447 28.4613 375.146 30.3747 375.092 32.616C375.037 34.8573 375.338 36.798 375.994 38.438C376.65 40.078 377.442 41.3353 378.372 42.21C379.356 43.0847 380.258 43.522 381.078 43.522C381.679 43.522 382.253 43.2487 382.8 42.702C383.346 42.1007 383.811 41.4447 384.194 40.734C384.576 39.9687 384.877 39.3127 385.096 38.766C385.314 38.2193 385.424 37.946 385.424 37.946L384.112 24.58ZM420.447 25.81L424.957 19.578C424.957 19.578 425.149 19.3593 425.531 18.922C425.969 18.4847 426.707 18.0473 427.745 17.61C428.839 17.1727 430.315 16.9813 432.173 17.036C434.087 17.036 435.535 17.4187 436.519 18.184C437.558 18.8947 438.159 19.7147 438.323 20.644C438.487 21.5733 438.159 22.4207 437.339 23.186C436.738 23.7327 435.918 24.5527 434.879 25.646C433.895 26.7393 432.857 27.8873 431.763 29.09C430.725 30.238 429.823 31.222 429.057 32.042C428.347 32.862 427.991 33.272 427.991 33.272L436.027 43.932C436.027 43.932 436.164 44.1233 436.437 44.506C436.711 44.8887 436.929 45.3807 437.093 45.982C437.257 46.5833 437.23 47.1847 437.011 47.786C436.847 48.3327 436.301 48.8247 435.371 49.262C434.497 49.6993 433.103 49.9453 431.189 50C429.276 50.0547 427.8 49.7813 426.761 49.18C425.777 48.5787 425.094 47.9773 424.711 47.376C424.329 46.7747 424.137 46.474 424.137 46.474L420.693 40.488L416.183 47.704C416.183 47.704 416.047 47.8953 415.773 48.278C415.5 48.6607 414.899 49.0433 413.969 49.426C413.095 49.8087 411.646 50 409.623 50C406.617 50 404.813 49.3713 404.211 48.114C403.61 46.802 404.047 45.2167 405.523 43.358C406.507 42.1007 407.546 40.7067 408.639 39.176C409.787 37.6453 410.744 36.3333 411.509 35.24C412.329 34.092 412.739 33.518 412.739 33.518L402.899 22.94C402.899 22.94 402.763 22.7487 402.489 22.366C402.271 21.9833 402.107 21.4913 401.997 20.89C401.943 20.2887 402.189 19.6873 402.735 19.086C403.337 18.43 404.457 17.8833 406.097 17.446C408.284 16.8447 410.006 16.7353 411.263 17.118C412.575 17.5007 413.505 17.9927 414.051 18.594C414.598 19.1407 414.871 19.414 414.871 19.414L420.447 25.81ZM449.174 15.478C449.174 15.478 448.819 15.478 448.108 15.478C447.398 15.4233 446.55 15.2593 445.566 14.986C444.637 14.658 443.79 14.084 443.024 13.264C442.259 12.444 441.849 11.214 441.794 9.574C441.74 7.934 441.986 6.73133 442.532 5.966C443.079 5.146 443.762 4.59933 444.582 4.326C445.402 3.998 446.195 3.834 446.96 3.834C447.726 3.77933 448.272 3.72467 448.6 3.67C448.928 3.61533 449.475 3.67 450.24 3.834C451.006 3.94333 451.798 4.244 452.618 4.736C453.438 5.17333 454.122 5.85666 454.668 6.786C455.215 7.66066 455.434 8.836 455.324 10.312C455.215 11.7333 454.832 12.8267 454.176 13.592C453.575 14.3027 452.864 14.7947 452.044 15.068C451.279 15.2867 450.596 15.4233 449.994 15.478C449.448 15.478 449.174 15.478 449.174 15.478ZM446.304 44.916L444.336 26.22C444.336 26.22 444.2 25.9467 443.926 25.4C443.708 24.7987 443.544 24.3887 443.434 24.17C443.38 24.006 443.27 23.678 443.106 23.186C442.997 22.6393 443.134 22.0653 443.516 21.464C443.954 20.8627 444.883 20.4253 446.304 20.152C447.78 19.8787 449.311 19.7967 450.896 19.906C452.482 20.0153 453.876 20.5073 455.078 21.382C456.336 22.202 457.101 23.6507 457.374 25.728C457.593 27.2587 457.812 29.09 458.03 31.222C458.249 33.2993 458.44 35.3493 458.604 37.372C458.823 39.34 458.987 41.0073 459.096 42.374C459.26 43.686 459.342 44.342 459.342 44.342C459.342 44.342 459.37 44.6427 459.424 45.244C459.479 45.7907 459.397 46.4467 459.178 47.212C458.96 47.9227 458.413 48.5787 457.538 49.18C456.718 49.7267 455.379 50 453.52 50C451.662 50 450.24 49.754 449.256 49.262C448.272 48.7153 447.562 48.114 447.124 47.458C446.742 46.802 446.496 46.228 446.386 45.736C446.332 45.1893 446.304 44.916 446.304 44.916Z" fill="black"/>
</svg>