<svg width="1860" height="153" viewBox="0 0 1860 153" fill="none" xmlns="http://www.w3.org/2000/svg">
<rect width="1860" height="153" rx="10" fill="#FFC736" fill-opacity="0.8"/>
<path d="M811.29 69.282C809.431 69.282 808.01 69.0633 807.026 68.626C806.042 68.134 805.331 67.5873 804.894 66.986C804.511 66.3847 804.293 65.838 804.238 65.346C804.183 64.7993 804.156 64.4713 804.156 64.362C804.156 64.0887 804.047 63.6513 803.828 63.05C803.664 62.394 803.117 62.066 802.188 62.066C800.657 62.066 799.291 62.5307 798.088 63.46C796.94 64.3893 796.311 65.756 796.202 67.56C796.093 69.364 796.557 70.922 797.596 72.234C798.635 73.546 800.685 74.2293 803.746 74.284C805.277 74.284 806.889 74.5027 808.584 74.94C810.279 75.3773 811.864 76.088 813.34 77.072C814.871 78.0013 816.073 79.286 816.948 80.926C817.877 82.5113 818.342 84.5067 818.342 86.912C818.287 91.7227 817.003 95.44 814.488 98.064C811.973 100.688 807.791 102 801.942 102C798.061 102 794.945 101.535 792.594 100.606C790.243 99.622 788.521 98.474 787.428 97.162C786.389 95.85 785.843 94.6747 785.788 93.636C785.733 92.5973 785.788 91.586 785.952 90.602C786.171 89.618 786.745 88.7707 787.674 88.06C788.658 87.3493 790.216 86.912 792.348 86.748C794.535 86.584 796.093 86.7753 797.022 87.322C797.951 87.814 798.525 88.388 798.744 89.044C799.017 89.7 799.154 90.11 799.154 90.274C799.154 90.438 799.209 90.848 799.318 91.504C799.482 92.1053 799.755 92.7067 800.138 93.308C800.575 93.8547 801.177 94.128 801.942 94.128C803.09 94.128 804.074 93.6633 804.894 92.734C805.714 91.8047 806.233 90.3013 806.452 88.224C806.835 84.124 804.785 82.074 800.302 82.074C799.209 82.074 797.787 81.91 796.038 81.582C794.343 81.1993 792.649 80.5433 790.954 79.614C789.259 78.63 787.838 77.2633 786.69 75.514C785.542 73.7647 784.995 71.4687 785.05 68.626C785.105 65.7833 785.624 63.46 786.608 61.656C787.592 59.7973 788.877 58.376 790.462 57.392C792.102 56.3533 793.879 55.6153 795.792 55.178C797.76 54.7407 799.701 54.4947 801.614 54.44C804.183 54.3853 806.643 54.686 808.994 55.342C811.399 55.998 813.395 57.0093 814.98 58.376C816.62 59.688 817.549 61.41 817.768 63.542C817.932 65.1273 817.686 66.33 817.03 67.15C816.429 67.9153 815.663 68.462 814.734 68.79C813.859 69.0633 813.067 69.2273 812.356 69.282C811.645 69.282 811.29 69.282 811.29 69.282ZM855.166 77.236C855.002 79.9693 854.237 82.1833 852.87 83.878C851.504 85.518 849.836 86.7753 847.868 87.65C845.955 88.47 844.042 89.044 842.128 89.372C840.215 89.6453 838.602 89.782 837.29 89.782C836.033 89.782 835.404 89.782 835.404 89.782C835.732 91.6953 836.197 93.062 836.798 93.882C837.4 94.702 838.056 95.1667 838.766 95.276C839.532 95.3853 840.242 95.3307 840.898 95.112C841.554 94.8387 842.074 94.538 842.456 94.21C842.894 93.882 843.112 93.718 843.112 93.718C843.112 93.718 843.413 93.472 844.014 92.98C844.616 92.488 845.545 92.0233 846.802 91.586C848.114 91.094 849.754 90.848 851.722 90.848C853.964 90.848 855.467 91.1487 856.232 91.75C857.052 92.2967 857.435 92.9527 857.38 93.718C857.38 94.4287 857.216 95.0847 856.888 95.686C856.615 96.2327 856.478 96.506 856.478 96.506C856.478 96.506 856.232 96.7793 855.74 97.326C855.303 97.818 854.483 98.4193 853.28 99.13C852.078 99.8407 850.41 100.497 848.278 101.098C846.146 101.645 843.413 101.945 840.078 102C836.853 102.055 834.147 101.617 831.96 100.688C829.774 99.7587 827.97 98.556 826.548 97.08C825.127 95.5493 824.034 93.964 823.268 92.324C822.558 90.6293 822.038 89.0713 821.71 87.65C821.437 86.174 821.3 85.026 821.3 84.206C821.3 83.386 821.355 82.32 821.464 81.008C821.628 79.696 821.984 78.3293 822.53 76.908C823.132 75.432 824.034 74.038 825.236 72.726C826.439 71.414 828.079 70.348 830.156 69.528C832.288 68.708 834.994 68.2707 838.274 68.216C842.374 68.1613 845.572 68.5167 847.868 69.282C850.164 70.0473 851.832 70.9767 852.87 72.07C853.909 73.1633 854.538 74.202 854.756 75.186C855.03 76.17 855.166 76.8533 855.166 77.236ZM834.256 84.124C837.591 83.8507 840.078 83.14 841.718 81.992C843.358 80.844 844.315 79.5593 844.588 78.138C844.862 76.7167 844.588 75.514 843.768 74.53C843.003 73.4913 841.828 73.0267 840.242 73.136C838.657 73.1907 837.454 73.792 836.634 74.94C835.814 76.0333 835.24 77.318 834.912 78.794C834.584 80.2153 834.393 81.4727 834.338 82.566C834.284 83.6047 834.256 84.124 834.256 84.124ZM865.125 96.424C865.125 95.8227 865.043 94.784 864.879 93.308C864.715 91.832 864.496 90.1647 864.223 88.306C864.004 86.3927 863.758 84.5067 863.485 82.648C863.212 80.7347 862.911 79.04 862.583 77.564C862.31 76.0333 862.064 74.94 861.845 74.284C861.298 72.644 861.599 71.496 862.747 70.84C863.95 70.1293 865.617 69.6647 867.749 69.446C869.881 69.2273 871.412 69.3913 872.341 69.938C873.325 70.43 873.817 70.676 873.817 70.676C874.637 69.856 875.976 69.282 877.835 68.954C879.748 68.626 881.744 68.4893 883.821 68.544C886.5 68.5987 888.44 69.0087 889.643 69.774C890.846 70.5393 891.447 71.3593 891.447 72.234C891.447 72.89 891.365 73.382 891.201 73.71C891.037 74.038 890.381 74.366 889.233 74.694C888.14 74.9673 886.144 75.4593 883.247 76.17C881.552 76.5527 880.295 77.482 879.475 78.958C878.655 80.3793 878.136 82.0467 877.917 83.96C877.753 85.8187 877.753 87.6773 877.917 89.536C878.081 91.34 878.272 92.8707 878.491 94.128C878.71 95.3307 878.819 95.9867 878.819 96.096C878.819 96.2053 878.846 96.588 878.901 97.244C879.01 97.8453 878.928 98.5287 878.655 99.294C878.436 100.005 877.862 100.633 876.933 101.18C876.004 101.727 874.528 102 872.505 102C870.482 102 868.952 101.727 867.913 101.18C866.874 100.579 866.164 99.9227 865.781 99.212C865.398 98.5013 865.18 97.8727 865.125 97.326C865.125 96.7247 865.125 96.424 865.125 96.424ZM903.026 96.588C902.26 94.292 901.468 91.9413 900.648 89.536C899.828 87.076 899.035 84.7527 898.27 82.566C897.559 80.3247 896.93 78.384 896.384 76.744C895.837 75.104 895.454 73.956 895.236 73.3C894.798 71.9333 895.044 70.7853 895.974 69.856C896.903 68.9267 898.707 68.462 901.386 68.462C903.19 68.462 904.529 68.7353 905.404 69.282C906.278 69.774 906.825 70.2933 907.044 70.84C907.317 71.332 907.454 71.578 907.454 71.578L910.898 85.682L911.472 90.438L912.784 83.796C912.784 83.796 912.92 83.4133 913.194 82.648C913.467 81.828 913.822 80.844 914.26 79.696C914.697 78.4933 915.134 77.2907 915.572 76.088C916.009 74.8307 916.392 73.7647 916.72 72.89C917.376 71.1407 918.25 69.9927 919.344 69.446C920.492 68.8447 922.487 68.5987 925.33 68.708C926.751 68.7627 927.79 69.036 928.446 69.528C929.102 69.9653 929.484 70.4847 929.594 71.086C929.758 71.6327 929.785 72.1247 929.676 72.562C929.621 72.9993 929.594 73.218 929.594 73.218L918.032 97.818C918.032 97.818 917.813 98.1733 917.376 98.884C916.938 99.54 916.2 100.223 915.162 100.934C914.178 101.645 912.756 102 910.898 102C909.367 102 908.082 101.727 907.044 101.18C906.06 100.633 905.267 100.005 904.666 99.294C904.064 98.5833 903.627 97.9547 903.354 97.408C903.135 96.8613 903.026 96.588 903.026 96.588ZM941.129 67.478C941.129 67.478 940.774 67.478 940.063 67.478C939.353 67.4233 938.505 67.2593 937.521 66.986C936.592 66.658 935.745 66.084 934.979 65.264C934.214 64.444 933.804 63.214 933.749 61.574C933.695 59.934 933.941 58.7313 934.487 57.966C935.034 57.146 935.717 56.5993 936.537 56.326C937.357 55.998 938.15 55.834 938.915 55.834C939.681 55.7793 940.227 55.7247 940.555 55.67C940.883 55.6153 941.43 55.67 942.195 55.834C942.961 55.9433 943.753 56.244 944.573 56.736C945.393 57.1733 946.077 57.8567 946.623 58.786C947.17 59.6607 947.389 60.836 947.279 62.312C947.17 63.7333 946.787 64.8267 946.131 65.592C945.53 66.3027 944.819 66.7947 943.999 67.068C943.234 67.2867 942.551 67.4233 941.949 67.478C941.403 67.478 941.129 67.478 941.129 67.478ZM938.259 96.916L936.291 78.22C936.291 78.22 936.155 77.9467 935.881 77.4C935.663 76.7987 935.499 76.3887 935.389 76.17C935.335 76.006 935.225 75.678 935.061 75.186C934.952 74.6393 935.089 74.0653 935.471 73.464C935.909 72.8627 936.838 72.4253 938.259 72.152C939.735 71.8787 941.266 71.7967 942.851 71.906C944.437 72.0153 945.831 72.5073 947.033 73.382C948.291 74.202 949.056 75.6507 949.329 77.728C949.548 79.2587 949.767 81.09 949.985 83.222C950.204 85.2993 950.395 87.3493 950.559 89.372C950.778 91.34 950.942 93.0073 951.051 94.374C951.215 95.686 951.297 96.342 951.297 96.342C951.297 96.342 951.325 96.6427 951.379 97.244C951.434 97.7907 951.352 98.4467 951.133 99.212C950.915 99.9227 950.368 100.579 949.493 101.18C948.673 101.727 947.334 102 945.475 102C943.617 102 942.195 101.754 941.211 101.262C940.227 100.715 939.517 100.114 939.079 99.458C938.697 98.802 938.451 98.228 938.341 97.736C938.287 97.1893 938.259 96.916 938.259 96.916ZM983.325 83.304C981.193 83.304 979.635 83.058 978.651 82.566C977.721 82.0193 977.12 81.4727 976.847 80.926C976.628 80.3793 976.519 80.024 976.519 79.86C976.519 79.696 976.409 79.368 976.191 78.876C976.027 78.384 975.726 77.9193 975.289 77.482C974.851 76.99 974.277 76.744 973.567 76.744C972.856 76.6893 972.173 77.1813 971.517 78.22C970.861 79.2587 970.314 80.516 969.877 81.992C969.439 83.4133 969.166 84.78 969.057 86.092C969.002 87.404 969.139 88.7433 969.467 90.11C969.849 91.4767 970.396 92.6247 971.107 93.554C971.817 94.4287 972.665 94.8933 973.649 94.948C975.125 95.0027 976.027 94.784 976.355 94.292C976.683 93.7453 976.847 93.472 976.847 93.472C976.847 93.472 976.901 93.308 977.011 92.98C977.12 92.5973 977.421 92.1873 977.913 91.75C978.459 91.3127 979.307 90.9573 980.455 90.684C981.603 90.356 983.243 90.2193 985.375 90.274C987.507 90.3287 988.955 90.602 989.721 91.094C990.486 91.586 990.869 92.1327 990.869 92.734C990.923 93.3353 990.814 93.8547 990.541 94.292C990.267 94.7293 990.131 94.948 990.131 94.948C990.131 94.948 989.748 95.3033 988.983 96.014C988.217 96.7247 987.097 97.5447 985.621 98.474C984.199 99.4033 982.45 100.223 980.373 100.934C978.295 101.645 975.917 102 973.239 102C967.936 102 963.727 100.551 960.611 97.654C957.549 94.7567 955.909 90.6567 955.691 85.354C955.581 82.73 956.046 80.3793 957.085 78.302C958.123 76.2247 959.517 74.4753 961.267 73.054C963.016 71.578 964.957 70.4573 967.089 69.692C969.221 68.872 971.298 68.4073 973.321 68.298C975.398 68.1887 977.366 68.4893 979.225 69.2C981.083 69.856 982.751 70.758 984.227 71.906C985.757 73.054 986.987 74.2567 987.917 75.514C988.846 76.7713 989.365 77.9467 989.475 79.04C989.584 80.0787 989.338 80.8987 988.737 81.5C988.19 82.1013 987.479 82.5387 986.605 82.812C985.785 83.0307 985.047 83.1673 984.391 83.222C983.735 83.2767 983.379 83.304 983.325 83.304ZM1027.49 77.236C1027.33 79.9693 1026.57 82.1833 1025.2 83.878C1023.83 85.518 1022.16 86.7753 1020.2 87.65C1018.28 88.47 1016.37 89.044 1014.46 89.372C1012.54 89.6453 1010.93 89.782 1009.62 89.782C1008.36 89.782 1007.73 89.782 1007.73 89.782C1008.06 91.6953 1008.53 93.062 1009.13 93.882C1009.73 94.702 1010.38 95.1667 1011.09 95.276C1011.86 95.3853 1012.57 95.3307 1013.23 95.112C1013.88 94.8387 1014.4 94.538 1014.78 94.21C1015.22 93.882 1015.44 93.718 1015.44 93.718C1015.44 93.718 1015.74 93.472 1016.34 92.98C1016.94 92.488 1017.87 92.0233 1019.13 91.586C1020.44 91.094 1022.08 90.848 1024.05 90.848C1026.29 90.848 1027.8 91.1487 1028.56 91.75C1029.38 92.2967 1029.76 92.9527 1029.71 93.718C1029.71 94.4287 1029.54 95.0847 1029.22 95.686C1028.94 96.2327 1028.81 96.506 1028.81 96.506C1028.81 96.506 1028.56 96.7793 1028.07 97.326C1027.63 97.818 1026.81 98.4193 1025.61 99.13C1024.41 99.8407 1022.74 100.497 1020.61 101.098C1018.47 101.645 1015.74 101.945 1012.41 102C1009.18 102.055 1006.48 101.617 1004.29 100.688C1002.1 99.7587 1000.3 98.556 998.877 97.08C997.455 95.5493 996.362 93.964 995.597 92.324C994.886 90.6293 994.367 89.0713 994.039 87.65C993.765 86.174 993.629 85.026 993.629 84.206C993.629 83.386 993.683 82.32 993.793 81.008C993.957 79.696 994.312 78.3293 994.859 76.908C995.46 75.432 996.362 74.038 997.565 72.726C998.767 71.414 1000.41 70.348 1002.48 69.528C1004.62 68.708 1007.32 68.2707 1010.6 68.216C1014.7 68.1613 1017.9 68.5167 1020.2 69.282C1022.49 70.0473 1024.16 70.9767 1025.2 72.07C1026.24 73.1633 1026.87 74.202 1027.08 75.186C1027.36 76.17 1027.49 76.8533 1027.49 77.236ZM1006.58 84.124C1009.92 83.8507 1012.41 83.14 1014.05 81.992C1015.69 80.844 1016.64 79.5593 1016.92 78.138C1017.19 76.7167 1016.92 75.514 1016.1 74.53C1015.33 73.4913 1014.16 73.0267 1012.57 73.136C1010.99 73.1907 1009.78 73.792 1008.96 74.94C1008.14 76.0333 1007.57 77.318 1007.24 78.794C1006.91 80.2153 1006.72 81.4727 1006.67 82.566C1006.61 83.6047 1006.58 84.124 1006.58 84.124ZM1051.89 88.88C1047.79 88.7707 1044.59 88.3607 1042.29 87.65C1040 86.9393 1038.36 86.092 1037.37 85.108C1036.44 84.124 1035.87 83.1673 1035.65 82.238C1035.43 81.254 1035.32 80.4887 1035.32 79.942C1035.32 79.3953 1035.4 78.548 1035.57 77.4C1035.73 76.252 1036.25 75.0493 1037.13 73.792C1038 72.5347 1039.5 71.4413 1041.64 70.512C1043.82 69.5827 1046.91 69.0633 1050.9 68.954C1055.27 68.8447 1058.64 69.0907 1060.99 69.692C1063.34 70.2933 1065.01 71.004 1065.99 71.824C1067.03 72.644 1067.66 73.382 1067.88 74.038C1068.09 74.6393 1068.2 74.94 1068.2 74.94C1068.2 75.6507 1068.12 76.3887 1067.96 77.154C1067.79 77.8647 1067.3 78.466 1066.48 78.958C1065.72 79.3953 1064.38 79.5867 1062.46 79.532C1060.93 79.4773 1059.78 79.3407 1059.02 79.122C1058.25 78.9033 1057.68 78.6573 1057.3 78.384C1056.97 78.056 1056.61 77.728 1056.23 77.4C1055.9 77.072 1055.38 76.7987 1054.67 76.58C1054.02 76.3613 1052.95 76.2247 1051.48 76.17C1049.67 76.1153 1048.3 76.252 1047.38 76.58C1046.5 76.8533 1045.9 77.2087 1045.57 77.646C1045.3 78.0833 1045.13 78.466 1045.08 78.794C1045.08 79.0673 1045.08 79.204 1045.08 79.204C1045.08 79.204 1045.13 79.4227 1045.24 79.86C1045.41 80.2973 1045.95 80.7347 1046.88 81.172C1047.87 81.6093 1049.62 81.8553 1052.13 81.91C1056.89 82.074 1060.52 82.5387 1063.04 83.304C1065.61 84.0147 1067.41 84.862 1068.45 85.846C1069.54 86.83 1070.17 87.814 1070.34 88.798C1070.55 89.7273 1070.66 90.4653 1070.66 91.012C1070.66 91.5587 1070.47 92.406 1070.09 93.554C1069.76 94.702 1069.02 95.9047 1067.88 97.162C1066.73 98.4193 1064.95 99.5127 1062.55 100.442C1060.19 101.371 1057.02 101.891 1053.03 102C1048.71 102.109 1045.35 101.863 1042.95 101.262C1040.6 100.661 1038.9 99.95 1037.86 99.13C1036.88 98.31 1036.28 97.5993 1036.06 96.998C1035.84 96.342 1035.73 96.014 1035.73 96.014C1035.73 95.2487 1035.81 94.5107 1035.98 93.8C1036.2 93.0893 1036.69 92.5153 1037.45 92.078C1038.27 91.586 1039.61 91.3673 1041.47 91.422C1043.06 91.4767 1044.2 91.6133 1044.92 91.832C1045.68 92.0507 1046.25 92.324 1046.64 92.652C1047.02 92.9253 1047.38 93.226 1047.7 93.554C1048.03 93.882 1048.55 94.1553 1049.26 94.374C1049.97 94.5927 1051.04 94.7293 1052.46 94.784C1054.26 94.8387 1055.6 94.7293 1056.48 94.456C1057.41 94.128 1058.04 93.7453 1058.36 93.308C1058.69 92.8707 1058.86 92.5153 1058.86 92.242C1058.86 91.914 1058.86 91.75 1058.86 91.75C1058.86 91.75 1058.8 91.5313 1058.69 91.094C1058.58 90.602 1058.04 90.1373 1057.05 89.7C1056.12 89.208 1054.4 88.9347 1051.89 88.88Z" fill="black"/>
</svg>
