<svg width="219" height="31" viewBox="0 0 219 31" fill="none" xmlns="http://www.w3.org/2000/svg">
<path d="M0.015625 21.6172V9.07812C0.015625 6.78646 0.471354 4.97656 1.38281 3.64844C2.26823 2.3724 3.92188 1.2526 6.34375 0.289062L6.38281 3.6875C6.20052 3.79167 6.00521 3.92188 5.79688 4.07812C4.65104 4.96354 4.0651 6.48698 4.03906 8.64844V21.1094C4.03906 22.125 4.10417 22.9974 4.23438 23.7266C4.52083 25.2109 5.23698 26.3047 6.38281 27.0078V30.4453C4.2474 29.5599 2.67188 28.5182 1.65625 27.3203C0.5625 26.0182 0.015625 24.1172 0.015625 21.6172ZM15.6406 29.0781C13.8698 29.0781 12.2292 28.3359 10.7188 26.8516C9.13021 25.263 8.33594 23.375 8.33594 21.1875C8.33594 18.6875 9.0651 16.8255 10.5234 15.6016C10.6276 15.5234 10.7318 15.4453 10.8359 15.3672C9.5599 14.5339 8.76562 13.1276 8.45312 11.1484C8.375 10.6276 8.33594 10.0938 8.33594 9.54688C8.33594 7.04688 9.32552 4.98958 11.3047 3.375C12.7109 2.22917 14.1562 1.65625 15.6406 1.65625V6.69531C14.4948 6.8776 13.7786 7.60677 13.4922 8.88281C13.4141 9.16927 13.375 9.46875 13.375 9.78125C13.375 11.1094 13.8568 12.0469 14.8203 12.5938C15.0807 12.724 15.3411 12.8151 15.6016 12.8672V17.8672C14.4818 18.0755 13.7786 18.8047 13.4922 20.0547C13.4141 20.3672 13.375 20.6667 13.375 20.9531C13.375 22.3333 13.8698 23.2839 14.8594 23.8047C15.1198 23.9089 15.3802 23.987 15.6406 24.0391V29.0781ZM17.9062 29.0781V24.0391C19.0521 23.8568 19.7682 23.1276 20.0547 21.8516C20.1328 21.5651 20.1719 21.2656 20.1719 20.9531C20.1719 19.625 19.6901 18.6875 18.7266 18.1406C18.4661 18.0104 18.2057 17.9193 17.9453 17.8672V12.8672C19.0651 12.6589 19.7682 11.9297 20.0547 10.6797C20.1328 10.3672 20.1719 10.0677 20.1719 9.78125C20.1719 8.40104 19.6771 7.45052 18.6875 6.92969C18.4271 6.82552 18.1667 6.7474 17.9062 6.69531V1.65625C19.6771 1.65625 21.3177 2.39844 22.8281 3.88281C24.4167 5.47135 25.2109 7.35938 25.2109 9.54688C25.2109 12.0469 24.4818 13.9089 23.0234 15.1328C22.9193 15.2109 22.8151 15.2891 22.7109 15.3672C23.987 16.2005 24.7812 17.6068 25.0938 19.5859C25.1719 20.1068 25.2109 20.6406 25.2109 21.1875C25.2109 23.6875 24.2214 25.7448 22.2422 27.3594C20.8359 28.5052 19.3906 29.0781 17.9062 29.0781ZM27.1641 23.4531V18.375L34.5859 5.64062V15.4844L32.7891 18.375H34.5859V23.4531H27.1641ZM36.8125 29V1.61719H42.2812V18.375H44.3906V23.4531H42.2812V29H36.8125ZM47.3203 15.1719L48.4531 1.65625H62.4766V6.73438H53.1797L52.7109 11.7344C53.2839 11.6042 53.8698 11.5391 54.4688 11.5391V16.3438C53.2969 16.4479 52.4505 16.8776 51.9297 17.6328C51.8776 17.7109 51.8385 17.776 51.8125 17.8281L47.3203 15.1719ZM56.5781 29V24.0781C58.0625 23.8177 59.0391 22.9844 59.5078 21.5781C59.638 21.1615 59.7031 20.7188 59.7031 20.25C59.7031 18.7656 59.1042 17.6328 57.9062 16.8516C57.4635 16.5651 57.0208 16.3958 56.5781 16.3438V11.5391C59.8073 11.6172 62.138 12.9714 63.5703 15.6016C64.3255 17.0078 64.7031 18.5703 64.7031 20.2891C64.7031 23.388 63.5703 25.7708 61.3047 27.4375C59.8724 28.4271 58.2969 28.9479 56.5781 29ZM46.7344 22.125L51.4609 21.2266C51.513 22.2943 52.1641 23.1146 53.4141 23.6875C53.8047 23.8698 54.1172 23.9609 54.3516 23.9609V29.0391C52.2943 29.0391 50.4583 28.2448 48.8438 26.6562C47.4635 25.25 46.7604 23.7396 46.7344 22.125ZM66.6562 30.4453V27.0078C67.8021 26.3047 68.5182 25.2109 68.8047 23.7266C68.9349 22.9974 69 22.125 69 21.1094V8.64844C68.974 6.48698 68.388 4.96354 67.2422 4.07812C67.0339 3.92188 66.8385 3.79167 66.6562 3.6875L66.6953 0.289062C69.1172 1.2526 70.7708 2.3724 71.6562 3.64844C72.5677 4.97656 73.0234 6.78646 73.0234 9.07812V21.6172C73.0234 24.1172 72.4766 26.0182 71.3828 27.3203C70.3672 28.5182 68.7917 29.5599 66.6562 30.4453ZM84.7422 23.4531V18.375L92.1641 5.64062V15.4844L90.3672 18.375H92.1641V23.4531H84.7422ZM94.3906 29V1.61719H99.8594V18.375H101.969V23.4531H99.8594V29H94.3906ZM103.922 23.4531V18.375L111.344 5.64062V15.4844L109.547 18.375H111.344V23.4531H103.922ZM113.57 29V1.61719H119.039V18.375H121.148V23.4531H119.039V29H113.57ZM123.492 8.92188V4L126.461 1.65625H131.969V29H126.461V8.92188H123.492ZM135.094 20.0156V15.0547H147.438V20.0156H135.094ZM166.148 6.73438H150.562V1.65625H166.148V6.73438ZM154.977 29C154.977 22.8542 156.396 16.7604 159.234 10.7188C159.547 10.0677 159.859 9.45573 160.172 8.88281H165.758C162.216 15.7578 160.445 22.4635 160.445 29H154.977ZM183.688 6.73438H168.102V1.65625H183.688V6.73438ZM172.516 29C172.516 22.8542 173.935 16.7604 176.773 10.7188C177.086 10.0677 177.398 9.45573 177.711 8.88281H183.297C179.755 15.7578 177.984 22.4635 177.984 29H172.516ZM201.227 6.73438H185.641V1.65625H201.227V6.73438ZM190.055 29C190.055 22.8542 191.474 16.7604 194.312 10.7188C194.625 10.0677 194.938 9.45573 195.25 8.88281H200.836C197.294 15.7578 195.523 22.4635 195.523 29H190.055ZM218.766 6.73438H203.18V1.65625H218.766V6.73438ZM207.594 29C207.594 22.8542 209.013 16.7604 211.852 10.7188C212.164 10.0677 212.477 9.45573 212.789 8.88281H218.375C214.833 15.7578 213.062 22.4635 213.062 29H207.594Z" fill="black"/>
</svg>
