<svg width="344" height="72" viewBox="0 0 344 72" fill="none" xmlns="http://www.w3.org/2000/svg">
<path d="M0 36C0 16.1178 16.1178 0 36 0H308C327.882 0 344 16.1178 344 36C344 55.8823 327.882 72 308 72H36C16.1177 72 0 55.8823 0 36Z" fill="#FFC736"/>
<path d="M63.0156 41.6172V29.0781C63.0156 26.7865 63.4714 24.9766 64.3828 23.6484C65.2682 22.3724 66.9219 21.2526 69.3438 20.2891L69.3828 23.6875C69.2005 23.7917 69.0052 23.9219 68.7969 24.0781C67.651 24.9635 67.0651 26.487 67.0391 28.6484V41.1094C67.0391 42.125 67.1042 42.9974 67.2344 43.7266C67.5208 45.2109 68.237 46.3047 69.3828 47.0078V50.4453C67.2474 49.5599 65.6719 48.5182 64.6562 47.3203C63.5625 46.0182 63.0156 44.1172 63.0156 41.6172ZM78.6406 49.0781C76.8698 49.0781 75.2292 48.3359 73.7188 46.8516C72.1302 45.263 71.3359 43.375 71.3359 41.1875C71.3359 38.6875 72.0651 36.8255 73.5234 35.6016C73.6276 35.5234 73.7318 35.4453 73.8359 35.3672C72.5599 34.5339 71.7656 33.1276 71.4531 31.1484C71.375 30.6276 71.3359 30.0938 71.3359 29.5469C71.3359 27.0469 72.3255 24.9896 74.3047 23.375C75.7109 22.2292 77.1562 21.6562 78.6406 21.6562V26.6953C77.4948 26.8776 76.7786 27.6068 76.4922 28.8828C76.4141 29.1693 76.375 29.4688 76.375 29.7812C76.375 31.1094 76.8568 32.0469 77.8203 32.5938C78.0807 32.724 78.3411 32.8151 78.6016 32.8672V37.8672C77.4818 38.0755 76.7786 38.8047 76.4922 40.0547C76.4141 40.3672 76.375 40.6667 76.375 40.9531C76.375 42.3333 76.8698 43.2839 77.8594 43.8047C78.1198 43.9089 78.3802 43.987 78.6406 44.0391V49.0781ZM80.9062 49.0781V44.0391C82.0521 43.8568 82.7682 43.1276 83.0547 41.8516C83.1328 41.5651 83.1719 41.2656 83.1719 40.9531C83.1719 39.625 82.6901 38.6875 81.7266 38.1406C81.4661 38.0104 81.2057 37.9193 80.9453 37.8672V32.8672C82.0651 32.6589 82.7682 31.9297 83.0547 30.6797C83.1328 30.3672 83.1719 30.0677 83.1719 29.7812C83.1719 28.401 82.6771 27.4505 81.6875 26.9297C81.4271 26.8255 81.1667 26.7474 80.9062 26.6953V21.6562C82.6771 21.6562 84.3177 22.3984 85.8281 23.8828C87.4167 25.4714 88.2109 27.3594 88.2109 29.5469C88.2109 32.0469 87.4818 33.9089 86.0234 35.1328C85.9193 35.2109 85.8151 35.2891 85.7109 35.3672C86.987 36.2005 87.7812 37.6068 88.0938 39.5859C88.1719 40.1068 88.2109 40.6406 88.2109 41.1875C88.2109 43.6875 87.2214 45.7448 85.2422 47.3594C83.8359 48.5052 82.3906 49.0781 80.9062 49.0781ZM90.1641 43.4531V38.375L97.5859 25.6406V35.4844L95.7891 38.375H97.5859V43.4531H90.1641ZM99.8125 49V21.6172H105.281V38.375H107.391V43.4531H105.281V49H99.8125ZM110.32 35.1719L111.453 21.6562H125.477V26.7344H116.18L115.711 31.7344C116.284 31.6042 116.87 31.5391 117.469 31.5391V36.3438C116.297 36.4479 115.451 36.8776 114.93 37.6328C114.878 37.7109 114.839 37.776 114.812 37.8281L110.32 35.1719ZM119.578 49V44.0781C121.062 43.8177 122.039 42.9844 122.508 41.5781C122.638 41.1615 122.703 40.7188 122.703 40.25C122.703 38.7656 122.104 37.6328 120.906 36.8516C120.464 36.5651 120.021 36.3958 119.578 36.3438V31.5391C122.807 31.6172 125.138 32.9714 126.57 35.6016C127.326 37.0078 127.703 38.5703 127.703 40.2891C127.703 43.388 126.57 45.7708 124.305 47.4375C122.872 48.4271 121.297 48.9479 119.578 49ZM109.734 42.125L114.461 41.2266C114.513 42.2943 115.164 43.1146 116.414 43.6875C116.805 43.8698 117.117 43.9609 117.352 43.9609V49.0391C115.294 49.0391 113.458 48.2448 111.844 46.6562C110.464 45.25 109.76 43.7396 109.734 42.125ZM129.656 50.4453V47.0078C130.802 46.3047 131.518 45.2109 131.805 43.7266C131.935 42.9974 132 42.125 132 41.1094V28.6484C131.974 26.487 131.388 24.9635 130.242 24.0781C130.034 23.9219 129.839 23.7917 129.656 23.6875L129.695 20.2891C132.117 21.2526 133.771 22.3724 134.656 23.6484C135.568 24.9766 136.023 26.7865 136.023 29.0781V41.6172C136.023 44.1172 135.477 46.0182 134.383 47.3203C133.367 48.5182 131.792 49.5599 129.656 50.4453ZM147.742 43.4531V38.375L155.164 25.6406V35.4844L153.367 38.375H155.164V43.4531H147.742ZM157.391 49V21.6172H162.859V38.375H164.969V43.4531H162.859V49H157.391ZM166.922 43.4531V38.375L174.344 25.6406V35.4844L172.547 38.375H174.344V43.4531H166.922ZM176.57 49V21.6172H182.039V38.375H184.148V43.4531H182.039V49H176.57ZM186.492 28.9219V24L189.461 21.6562H194.969V49H189.461V28.9219H186.492ZM198.094 40.0156V35.0547H210.438V40.0156H198.094ZM229.148 26.7344H213.562V21.6562H229.148V26.7344ZM217.977 49C217.977 42.8542 219.396 36.7604 222.234 30.7188C222.547 30.0677 222.859 29.4557 223.172 28.8828H228.758C225.216 35.7578 223.445 42.4635 223.445 49H217.977ZM246.688 26.7344H231.102V21.6562H246.688V26.7344ZM235.516 49C235.516 42.8542 236.935 36.7604 239.773 30.7188C240.086 30.0677 240.398 29.4557 240.711 28.8828H246.297C242.755 35.7578 240.984 42.4635 240.984 49H235.516ZM264.227 26.7344H248.641V21.6562H264.227V26.7344ZM253.055 49C253.055 42.8542 254.474 36.7604 257.312 30.7188C257.625 30.0677 257.938 29.4557 258.25 28.8828H263.836C260.294 35.7578 258.523 42.4635 258.523 49H253.055ZM281.766 26.7344H266.18V21.6562H281.766V26.7344ZM270.594 49C270.594 42.8542 272.013 36.7604 274.852 30.7188C275.164 30.0677 275.477 29.4557 275.789 28.8828H281.375C277.833 35.7578 276.062 42.4635 276.062 49H270.594Z" fill="black"/>
</svg>
