<svg width="1860" height="153" viewBox="0 0 1860 153" fill="none" xmlns="http://www.w3.org/2000/svg">
<rect width="1860" height="153" rx="10" fill="#FFC736" fill-opacity="0.8"/>
<path d="M841.974 95.572L838.202 59.82C838.202 59.82 838.12 59.656 837.956 59.328C837.847 59 837.82 58.5627 837.874 58.016C837.929 57.4693 838.23 56.8953 838.776 56.294C839.378 55.6927 840.389 55.146 841.81 54.654C843.724 53.9433 845.965 53.3693 848.534 52.932C851.158 52.44 853.919 52.3033 856.816 52.522C859.768 52.7407 862.666 53.6153 865.508 55.146C867.203 56.0207 868.46 57.278 869.28 58.918C870.1 60.558 870.592 62.3073 870.756 64.166C870.92 66.0247 870.92 67.8013 870.756 69.496C870.647 71.1907 870.456 72.5847 870.182 73.678C869.964 74.7713 869.854 75.318 869.854 75.318C869.854 75.318 869.663 75.728 869.28 76.548C868.898 77.368 868.16 78.2973 867.066 79.336C866.028 80.32 864.497 81.1127 862.474 81.714L874.118 94.26C874.118 94.26 874.31 94.4787 874.692 94.916C875.075 95.3533 875.376 95.9 875.594 96.556C875.868 97.1573 875.813 97.786 875.43 98.442C875.102 99.0433 874.2 99.5627 872.724 100C871.194 100.437 869.827 100.547 868.624 100.328C867.476 100.109 866.52 99.754 865.754 99.262C865.044 98.77 864.497 98.3053 864.114 97.868C863.732 97.4307 863.54 97.212 863.54 97.212L852.716 83.846L855.422 95.408C855.422 95.408 855.477 95.654 855.586 96.146C855.696 96.5833 855.641 97.1027 855.422 97.704C855.204 98.3053 854.657 98.852 853.782 99.344C852.908 99.7813 851.514 100 849.6 100C847.687 100 846.184 99.7813 845.09 99.344C844.052 98.9067 843.314 98.3873 842.876 97.786C842.439 97.1847 842.166 96.6653 842.056 96.228C842.002 95.7907 841.974 95.572 841.974 95.572ZM849.764 59.738L851.732 76.22C851.732 76.22 852.033 76.2473 852.634 76.302C853.29 76.3567 854.056 76.302 854.93 76.138C855.86 75.974 856.734 75.5913 857.554 74.99C858.429 74.334 859.14 73.35 859.686 72.038C860.233 70.6713 860.424 68.8127 860.26 66.462C860.096 64.2207 859.659 62.5807 858.948 61.542C858.238 60.4487 857.363 59.7653 856.324 59.492C855.286 59.164 854.192 59.082 853.044 59.246C851.896 59.3553 850.803 59.5193 849.764 59.738ZM895.358 66.134C898.092 66.0793 900.415 66.3253 902.328 66.872C904.242 67.364 905.827 67.9653 907.084 68.676C908.342 69.3867 909.326 70.0153 910.036 70.562C910.747 71.1087 911.266 71.382 911.594 71.382C912.196 71.4367 912.633 71.7373 912.906 72.284C913.18 72.776 913.316 73.022 913.316 73.022C913.316 73.022 913.398 73.5687 913.562 74.662C913.726 75.7553 913.918 77.1493 914.136 78.844C914.41 80.5387 914.656 82.3153 914.874 84.174C915.093 86.0327 915.284 87.782 915.448 89.422C915.612 91.062 915.694 92.3467 915.694 93.276C915.694 94.8067 915.585 96.0367 915.366 96.966C915.202 97.8953 914.656 98.606 913.726 99.098C912.797 99.5353 911.266 99.836 909.134 100C907.549 100.109 906.401 100.082 905.69 99.918C904.98 99.754 904.542 99.5627 904.378 99.344C904.214 99.1253 904.132 99.016 904.132 99.016C903.64 99.3987 902.82 99.672 901.672 99.836C900.579 99.9453 899.54 100 898.556 100C897.572 100 897.08 100 897.08 100C897.08 100 896.452 99.918 895.194 99.754C893.937 99.5353 892.379 99.1253 890.52 98.524C888.716 97.868 886.885 96.9113 885.026 95.654C883.222 94.342 881.719 92.62 880.516 90.488C879.314 88.3013 878.74 85.5953 878.794 82.37C878.849 79.1447 879.45 76.5207 880.598 74.498C881.746 72.4207 883.14 70.808 884.78 69.66C886.42 68.512 888.033 67.692 889.618 67.2C891.258 66.708 892.625 66.4073 893.718 66.298C894.812 66.1887 895.358 66.134 895.358 66.134ZM901.508 74.58C901.235 74.1973 900.634 73.7873 899.704 73.35C898.83 72.858 897.982 72.448 897.162 72.12C896.397 71.792 896.014 71.6827 896.014 71.792C896.014 71.8467 895.714 72.3113 895.112 73.186C894.566 74.006 893.992 75.236 893.39 76.876C892.844 78.4613 892.543 80.3747 892.488 82.616C892.434 84.8573 892.734 86.798 893.39 88.438C894.046 90.078 894.839 91.3353 895.768 92.21C896.752 93.0847 897.654 93.522 898.474 93.522C899.076 93.522 899.65 93.2487 900.196 92.702C900.743 92.1007 901.208 91.4447 901.59 90.734C901.973 89.9687 902.274 89.3127 902.492 88.766C902.711 88.2193 902.82 87.946 902.82 87.946L901.508 74.58ZM919.476 55.228C919.421 53.8613 919.831 52.768 920.706 51.948C921.58 51.0733 923.521 50.554 926.528 50.39C928.55 50.2807 930.026 50.5267 930.956 51.128C931.885 51.7293 932.459 52.358 932.678 53.014C932.951 53.6153 933.088 53.916 933.088 53.916L933.58 61.214C933.58 61.214 934.017 61.214 934.892 61.214C935.821 61.214 936.86 61.3233 938.008 61.542C939.21 61.706 940.249 62.0613 941.124 62.608C942.053 63.1547 942.518 64.002 942.518 65.15C942.518 66.298 942.08 67.1453 941.206 67.692C940.331 68.2387 939.32 68.6213 938.172 68.84C937.024 69.004 935.985 69.086 935.056 69.086C934.181 69.086 933.744 69.086 933.744 69.086C933.744 69.086 933.744 69.7147 933.744 70.972C933.798 72.1747 933.826 73.76 933.826 75.728C933.826 77.6413 933.853 79.6913 933.908 81.878C933.962 84.0647 933.99 86.1693 933.99 88.192C933.99 90.16 933.99 91.8273 933.99 93.194C934.044 94.506 934.072 95.2713 934.072 95.49C934.072 95.8727 933.935 96.4193 933.662 97.13C933.443 97.8407 932.814 98.4967 931.776 99.098C930.792 99.6993 929.152 100 926.856 100C925.161 100 923.849 99.8087 922.92 99.426C921.99 98.9887 921.307 98.524 920.87 98.032C920.487 97.4853 920.268 97.0207 920.214 96.638C920.159 96.2007 920.132 95.982 920.132 95.982L919.476 55.228ZM979.104 75.236C978.94 77.9693 978.175 80.1833 976.808 81.878C975.441 83.518 973.774 84.7753 971.806 85.65C969.893 86.47 967.979 87.044 966.066 87.372C964.153 87.6453 962.54 87.782 961.228 87.782C959.971 87.782 959.342 87.782 959.342 87.782C959.67 89.6953 960.135 91.062 960.736 91.882C961.337 92.702 961.993 93.1667 962.704 93.276C963.469 93.3853 964.18 93.3307 964.836 93.112C965.492 92.8387 966.011 92.538 966.394 92.21C966.831 91.882 967.05 91.718 967.05 91.718C967.05 91.718 967.351 91.472 967.952 90.98C968.553 90.488 969.483 90.0233 970.74 89.586C972.052 89.094 973.692 88.848 975.66 88.848C977.901 88.848 979.405 89.1487 980.17 89.75C980.99 90.2967 981.373 90.9527 981.318 91.718C981.318 92.4287 981.154 93.0847 980.826 93.686C980.553 94.2327 980.416 94.506 980.416 94.506C980.416 94.506 980.17 94.7793 979.678 95.326C979.241 95.818 978.421 96.4193 977.218 97.13C976.015 97.8407 974.348 98.4967 972.216 99.098C970.084 99.6447 967.351 99.9453 964.016 100C960.791 100.055 958.085 99.6173 955.898 98.688C953.711 97.7587 951.907 96.556 950.486 95.08C949.065 93.5493 947.971 91.964 947.206 90.324C946.495 88.6293 945.976 87.0713 945.648 85.65C945.375 84.174 945.238 83.026 945.238 82.206C945.238 81.386 945.293 80.32 945.402 79.008C945.566 77.696 945.921 76.3293 946.468 74.908C947.069 73.432 947.971 72.038 949.174 70.726C950.377 69.414 952.017 68.348 954.094 67.528C956.226 66.708 958.932 66.2707 962.212 66.216C966.312 66.1613 969.51 66.5167 971.806 67.282C974.102 68.0473 975.769 68.9767 976.808 70.07C977.847 71.1633 978.475 72.202 978.694 73.186C978.967 74.17 979.104 74.8533 979.104 75.236ZM958.194 82.124C961.529 81.8507 964.016 81.14 965.656 79.992C967.296 78.844 968.253 77.5593 968.526 76.138C968.799 74.7167 968.526 73.514 967.706 72.53C966.941 71.4913 965.765 71.0267 964.18 71.136C962.595 71.1907 961.392 71.792 960.572 72.94C959.752 74.0333 959.178 75.318 958.85 76.794C958.522 78.2153 958.331 79.4727 958.276 80.566C958.221 81.6047 958.194 82.124 958.194 82.124ZM1003.49 86.88C999.394 86.7707 996.196 86.3607 993.9 85.65C991.604 84.9393 989.964 84.092 988.98 83.108C988.051 82.124 987.477 81.1673 987.258 80.238C987.04 79.254 986.93 78.4887 986.93 77.942C986.93 77.3953 987.012 76.548 987.176 75.4C987.34 74.252 987.86 73.0493 988.734 71.792C989.609 70.5347 991.112 69.4413 993.244 68.512C995.431 67.5827 998.52 67.0633 1002.51 66.954C1006.88 66.8447 1010.25 67.0907 1012.6 67.692C1014.95 68.2933 1016.61 69.004 1017.6 69.824C1018.64 70.644 1019.27 71.382 1019.48 72.038C1019.7 72.6393 1019.81 72.94 1019.81 72.94C1019.81 73.6507 1019.73 74.3887 1019.57 75.154C1019.4 75.8647 1018.91 76.466 1018.09 76.958C1017.33 77.3953 1015.99 77.5867 1014.07 77.532C1012.54 77.4773 1011.39 77.3407 1010.63 77.122C1009.86 76.9033 1009.29 76.6573 1008.91 76.384C1008.58 76.056 1008.22 75.728 1007.84 75.4C1007.51 75.072 1006.99 74.7987 1006.28 74.58C1005.63 74.3613 1004.56 74.2247 1003.08 74.17C1001.28 74.1153 999.914 74.252 998.984 74.58C998.11 74.8533 997.508 75.2087 997.18 75.646C996.907 76.0833 996.743 76.466 996.688 76.794C996.688 77.0673 996.688 77.204 996.688 77.204C996.688 77.204 996.743 77.4227 996.852 77.86C997.016 78.2973 997.563 78.7347 998.492 79.172C999.476 79.6093 1001.23 79.8553 1003.74 79.91C1008.5 80.074 1012.13 80.5387 1014.65 81.304C1017.22 82.0147 1019.02 82.862 1020.06 83.846C1021.15 84.83 1021.78 85.814 1021.94 86.798C1022.16 87.7273 1022.27 88.4653 1022.27 89.012C1022.27 89.5587 1022.08 90.406 1021.7 91.554C1021.37 92.702 1020.63 93.9047 1019.48 95.162C1018.34 96.4193 1016.56 97.5127 1014.15 98.442C1011.8 99.3713 1008.63 99.8907 1004.64 100C1000.32 100.109 996.962 99.8633 994.556 99.262C992.206 98.6607 990.511 97.95 989.472 97.13C988.488 96.31 987.887 95.5993 987.668 94.998C987.45 94.342 987.34 94.014 987.34 94.014C987.34 93.2487 987.422 92.5107 987.586 91.8C987.805 91.0893 988.297 90.5153 989.062 90.078C989.882 89.586 991.222 89.3673 993.08 89.422C994.666 89.4767 995.814 89.6133 996.524 89.832C997.29 90.0507 997.864 90.324 998.246 90.652C998.629 90.9253 998.984 91.226 999.312 91.554C999.64 91.882 1000.16 92.1553 1000.87 92.374C1001.58 92.5927 1002.65 92.7293 1004.07 92.784C1005.87 92.8387 1007.21 92.7293 1008.09 92.456C1009.02 92.128 1009.64 91.7453 1009.97 91.308C1010.3 90.8707 1010.46 90.5153 1010.46 90.242C1010.46 89.914 1010.46 89.75 1010.46 89.75C1010.46 89.75 1010.41 89.5313 1010.3 89.094C1010.19 88.602 1009.64 88.1373 1008.66 87.7C1007.73 87.208 1006.01 86.9347 1003.49 86.88Z" fill="black"/>
</svg>
